# xmcd CD database file
#
# Track frame offsets:
#	225
#	19388
#	39131
#	51013
#	67994
#	81857
#	93042
#	109443
#	126459
#	136880
#	149179
#	161158
#	176229
#	188403
#	202009
#	215329
#	228062
#	241212
#	256640
#	267974
#	280852
#	293671
#	304736
#	318523
#
# Disc length: 4389 seconds
#
# Revision: 0
# Processed by: cddbd v1.5.2PL0 Copyright (c) Steve Scherf et al.
# Submitted via: CDex 1.51
#
DISCID=5d112218
DTITLE=Mr. Acker Bilk - Horn Of Plenty - Mood For Love
DYEAR=1966
DGENRE=Jazz
TTITLE0=You'll Never Know - Mr. Acker Bilk and The Leon Young String Chorale
TTITLE1=Embraceable You - Mr. Acker Bilk and The Leon Young String Chorale
TTITLE2=Bagatelle - Mr. Acker Bilk and The Leon Young String Chorale
TTITLE3=Skylark - Mr. Acker Bilk and The Leon Young String Chorale
TTITLE4=It's Only A Paper Moon - Mr. Acker Bilk and The Leon Young String Chorale
TTITLE5=Summer Set - Mr. Acker Bilk and The Leon Young String Chorale
TTITLE6=Out Of Nowhere - Mr. Acker Bilk and The Leon Young String Chorale
TTITLE7=Where Or When - Mr. Acker Bilk and The Leon Young String Chorale
TTITLE8=Jacqueline - Mr. Acker Bilk and The Leon Young String Chorale
TTITLE9=Irish Lullaby - Mr. Acker Bilk and The Leon Young String Chorale
TTITLE10=Bird In The Park - Mr. Acker Bilk and The Leon Young String Chorale
TTITLE11=Horn Of Plenty - Mr. Acker Bilk and The Leon Young String Chorale
TTITLE12=I'm In The Mood For Love - Mr. Acker Bilk and The Stan Tracey Strings
TTITLE13=Sonia - Mr. Acker Bilk and The Stan Tracey Strings
TTITLE14=La Playa - Mr. Acker Bilk and The Stan Tracey Strings
TTITLE15=Confessin' - Mr. Acker Bilk and The Stan Tracey Strings
TTITLE16=Paradise - Mr. Acker Bilk and The Stan Tracey Strings
TTITLE17=When Lights Are Low - Mr. Acker Bilk and The Stan Tracey Strings
TTITLE18=It Had To Be You - Mr. Acker Bilk and The Stan Tracey Strings
TTITLE19=Theme For Madame 'X' - Mr. Acker Bilk and The Stan Tracey Strings
TTITLE20=Night Lights - Mr. Acker Bilk and The Stan Tracey Strings
TTITLE21=When You Are There - Mr. Acker Bilk and The Stan Tracey Strings
TTITLE22=If I Could Be With You - Mr. Acker Bilk and The Stan Tracey Strings
TTITLE23=When Your Lover Has Gone - Mr. Acker Bilk and The Stan Tracey Strings
EXTD=YEAR: 1966
EXTT0=
EXTT1=
EXTT2=
EXTT3=
EXTT4=
EXTT5=
EXTT6=
EXTT7=
EXTT8=
EXTT9=
EXTT10=
EXTT11=
EXTT12=
EXTT13=
EXTT14=
EXTT15=
EXTT16=
EXTT17=
EXTT18=
EXTT19=
EXTT20=
EXTT21=
EXTT22=
EXTT23=
PLAYORDER=
